<mxfile host="app.diagrams.net" modified="2024-06-19T05:37:48.689Z" agent="Mozilla/5.0 (Macintosh; Intel Mac OS X 10.15; rv:126.0) Gecko/20100101 Firefox/126.0" version="24.5.5" etag="vocNnMS1rfnAaaCEksf0" type="github">
  <diagram name="Page-1" id="bJrLjAoiDez40FBW1Drm">
    <mxGraphModel>
      <root>
        <mxCell id="0" />
        <mxCell id="1" parent="0" />
      </root>
    </mxGraphModel>
  </diagram>
</mxfile>
